<svg
	xmlns="http://www.w3.org/2000/svg"
	width="100%"
	x="0"
	y="0"
	version="1.1"
	viewBox="0 0 424 512"
	xmlSpace="preserve"
>
	<path
		fill="#9DC90D"
		d="M262.633 428.739c18.236-8.648 33.896-20.069 46.525-35.414 14.372-17.463 24.392-37.064 27.749-59.588 1.33-8.93 1.984-18.043 2.004-27.075.157-71.49.096-142.981.07-214.472-.002-5.703 1.436-10.764 6.432-13.96 1.944-1.245 4.502-2.104 6.794-2.134 14.329-.19 28.674.265 42.988-.239 7.892-.278 13.923 7.068 13.856 14.033-.161 16.663-.052 33.329-.052 49.993 0 46.494.17 92.989-.066 139.482-.135 26.625-5.616 52.38-16.17 76.75-8.397 19.388-19.44 37.27-33.498 53.368-15.784 18.075-34.238 32.403-55.11 43.967-17.98 9.963-37.17 16.83-57.257 20.212-14.717 2.479-29.95 3.76-44.824 3.013-24.557-1.232-48.28-7.165-70.847-17.53-22.614-10.387-42.56-24.377-59.753-42.254-16.263-16.91-29.801-35.81-38.387-57.76-5.072-12.968-9.67-26.221-13.13-39.693-4.694-18.28-6.263-37.15-4.794-55.955 1.813-23.191 6.512-45.93 15.955-67.345 8.681-19.69 19.354-38.326 34.371-53.924 9.864-10.246 19.92-20.61 31.28-29.048 20.825-15.467 43.947-26.814 69.618-32.15 8.607-1.789 17.297-3.18 25.946-4.766 5.136-.94 11.588 3.984 11.61 9.378.112 27.995.135 55.992-.014 83.988-.033 6.163-6.094 11.606-12.277 12.42-18.113 2.382-34.972 8.242-50.882 17.413-11.167 6.437-21.234 14.22-29.87 23.468-11.19 11.982-19.958 25.8-25.907 41.283-6.624 17.239-10.114 35.074-8.836 53.446 1.215 17.476 5.487 34.269 13.633 50.1 6.698 13.018 14.864 24.717 25.327 34.903 15.898 15.476 34.252 26.48 55.75 32.553 12.583 3.554 25.266 5.931 38.224 5.66 16.257-.342 32.141-3.39 47.291-9.618 1.959-.805 3.947-1.54 6.251-2.505z"
		opacity="1"
	></path>
	<path
		fill="#9DC90D"
		d="M249 124c0-12.165-.015-23.83.006-35.495.014-7.785 4.749-12.49 12.576-12.5 14.331-.017 28.662-.022 42.993.002 7.818.013 13.36 5.282 13.389 13.145.094 25.829.091 51.658.001 77.487-.03 8.459-6.295 14.351-14.845 14.358-13.498.011-26.996.016-40.493-.002-8.206-.011-13.61-5.363-13.621-13.502-.02-14.33-.006-28.662-.006-43.493z"
		opacity="1"
	></path>
</svg>
